<svg xmlns="http://www.w3.org/2000/svg" viewBox="0 0 280.825 83"><path class="cls-1" d="M20.328 40.037c5.464-7.3 12.428-16.568 13.6-17.711 1.929-1.89 12.098 2.783 15.833 4.675a6.944 6.944 0 013.598 3.94c1.282-.34 2.362-.648 3.116-.922 4.399-1.616 15.355-1.854 18.825-.892 2.93.819 5.008 3.861 7.345 7.032A41.494 41.494 0 10.435 47.485c6.728-5.631 13.776-12.186 13.776-12.186s2.79 2.066 6.117 4.738M72.405 69.186c-3.347-3.027-7.337-5.48-11.632-5.909a40.505 40.505 0 00-6.146.035c-4.86 4.091-14.924 12.17-25.076 17.934a41.502 41.502 0 0042.854-12.06" fill="#e4e4e1"></path><path class="cls-2" d="M22.278 54.01c-4.006-4.21-7.643-6.715-10.642-2.974a39.903 39.903 0 01-8.192 7.022 41.449 41.449 0 003.79 6.854c.212-.138.422-.277.63-.426 4.375-3.099 9.968-7.078 14.414-10.476M33.958 37.682c2.17-2.73 13.187-5.097 19.401-6.741A6.956 6.956 0 0049.761 27c-3.736-1.89-13.904-6.563-15.834-4.674-1.171 1.142-8.135 10.412-13.599 17.711a93.937 93.937 0 018.977 7.967 3.403 3.403 0 00.417-.597c1.185-2.383 1.62-6.436 4.236-9.725" fill="#a0b178"></path><path class="cls-3" d="M27.74 60.152c-1.877-2.122-3.704-4.294-5.463-6.142-4.446 3.399-10.04 7.377-14.412 10.476-.208.148-.42.288-.63.426a41.58 41.58 0 0022.317 16.334c10.152-5.764 20.216-13.844 25.075-17.934-9.17.557-21.984 2.376-26.887-3.16M75.3 29.127c-3.47-.962-14.427-.724-18.826.891-.752.274-1.833.583-3.114.923-6.216 1.644-17.233 4.01-19.402 6.74-2.616 3.29-3.05 7.343-4.236 9.726a3.4 3.4 0 01-.417.597c.307.33.588.648.836.948 3.913 4.755 5.295 7.67 9.273 6.629a41.483 41.483 0 0121.833-.104c6.537 1.705 12.484 3.706 16.64 5.981a41.315 41.315 0 005.111-19.96 41.743 41.743 0 00-.353-5.34c-2.337-3.17-4.417-6.212-7.345-7.031" fill="#3c6d4d"></path><path class="cls-4" d="M11.637 51.035c2.999-3.739 6.635-1.235 10.641 2.975 1.757 1.847 3.585 4.022 5.462 6.142 4.902 5.536 17.718 3.718 26.887 3.16a40.688 40.688 0 016.146-.035c4.295.428 8.285 2.882 11.632 5.91a41.568 41.568 0 005.482-7.73c-4.156-2.275-10.103-4.274-16.64-5.981a41.49 41.49 0 00-21.832.105c-3.98 1.041-5.36-1.875-9.274-6.628-.248-.3-.529-.62-.836-.949a93.926 93.926 0 00-8.977-7.967c-3.327-2.672-6.116-4.739-6.116-4.739S7.162 41.854.436 47.486a41.199 41.199 0 003.007 10.572 39.792 39.792 0 008.194-7.022" fill="#b4d2d7"></path><path class="cls-5" fill="#5d3a1f" d="M117.276 27.274v23.117h9.174v5.78h-14.954V27.274h5.78zM142.737 47.643l-2.628-7.518-2.707 7.518zm-2.95-21.42h.606l12.165 29.948h-6.508l-1.171-3.111H135.3l-1.132 3.112h-6.547zM161.164 56.171h-5.78V26.667h1.536l14.591 16.974V27.314h5.819v29.463h-1.536l-14.63-16.328v15.722zM188.402 33.052v17.339h2.83c11.235 0 11.235-17.339 0-17.339zm2.83 23.119h-8.609V27.274h8.608c19.239 0 19.239 28.897 0 28.897M223.884 27.274v23.117h9.174v5.78h-14.954V27.274h5.78zM236.816 27.273h5.779V56.17h-5.779zM253.666 33.053v5.78h7.356v5.779h-7.356v11.559h-5.778V27.274h14.428v5.779h-8.65zM265.871 56.171V27.274h14.469v5.778h-8.689v5.78h7.598v5.78h-7.598v5.779h9.174v5.78h-14.954z"></path></svg>